<svg width="47" height="47" viewBox="0 0 47 47" fill="none" xmlns="http://www.w3.org/2000/svg">
<path d="M23.2349 33.1177C28.6927 33.1177 33.1172 28.6932 33.1172 23.2354C33.1172 17.7775 28.6927 13.353 23.2349 13.353C17.777 13.353 13.3525 17.7775 13.3525 23.2354C13.3525 28.6932 17.777 33.1177 23.2349 33.1177Z" stroke="#2B2B2B" stroke-width="2" stroke-linecap="round" stroke-linejoin="round"/>
<path d="M1 33.1176V13.3529C1 6.53061 6.53061 1 13.3529 1H33.1176C39.9399 1 45.4706 6.53061 45.4706 13.3529V33.1176C45.4706 39.9399 39.9399 45.4706 33.1176 45.4706H13.3529C6.53061 45.4706 1 39.9399 1 33.1176Z" stroke="#2B2B2B" stroke-width="2"/>
<path d="M36.8228 9.67116L36.8469 9.64429" stroke="#2B2B2B" stroke-width="2" stroke-linecap="round" stroke-linejoin="round"/>
</svg>
