<svg width="47" height="47" viewBox="0 0 47 47" fill="none" xmlns="http://www.w3.org/2000/svg">
<path d="M23.2349 33.3824C28.6927 33.3824 33.1172 28.9578 33.1172 23.5C33.1172 18.0422 28.6927 13.6177 23.2349 13.6177C17.777 13.6177 13.3525 18.0422 13.3525 23.5C13.3525 28.9578 17.777 33.3824 23.2349 33.3824Z" stroke="white" stroke-width="2" stroke-linecap="round" stroke-linejoin="round"/>
<path d="M1 33.3823V13.6176C1 6.79526 6.53061 1.26465 13.3529 1.26465H33.1176C39.9399 1.26465 45.4706 6.79526 45.4706 13.6176V33.3823C45.4706 40.2046 39.9399 45.7352 33.1176 45.7352H13.3529C6.53061 45.7352 1 40.2046 1 33.3823Z" stroke="white" stroke-width="2"/>
<path d="M36.823 9.9358L36.8472 9.90894" stroke="white" stroke-width="2" stroke-linecap="round" stroke-linejoin="round"/>
</svg>
